<?xml version="1.0"?>
<svg width="72" height="86.00000000000001" xmlns="http://www.w3.org/2000/svg" xmlns:svg="http://www.w3.org/2000/svg" enable-background="new 0 0 220 84.1" version="1.1" xml:space="preserve">
 <style type="text/css">.st0{fill:#FFFFFF;}
	.st1{fill:#00A19C;}
	.st2{fill:#3D3935;}</style>
 <g class="layer">
  <title>Layer 1</title>
  <g id="svg_1">
   <g id="svg_2">
    <path class="st0" d="m29.87,85.24c-5.3,0 -10.5,-1.4 -15.1,-4.2c-8.9,-5.4 -14.2,-14.8 -14.2,-25.1c0,-5.2 1.4,-10.3 4,-14.8l0,0c0.3,-0.6 2.5,-4.3 18.1,-31.4c3.8,-6.5 7.1,-8.4 15.7,-8.6l0.1,0l33.9,0l-20.1,34.9l2.7,4.7c2.7,4.6 4.2,9.8 4.2,15.1c0,16.2 -13.2,29.4 -29.3,29.4z" id="svg_3"/>
    <path class="st0" d="m48.37,36.04l18.3,-31.6l-28.2,0c-7.8,0.2 -9.9,1.8 -12.9,7c0,0 -18.1,31.4 -18.1,31.4c-2.3,3.8 -3.6,8.3 -3.6,13.1c0,9.5 5,17.7 12.6,22.3c3.9,2.3 8.5,3.7 13.4,3.7c14.3,0 26,-11.6 26,-26c0,-4.9 -1.4,-9.5 -3.7,-13.4l-3.8,-6.5z" id="svg_4"/>
    <g id="svg_5">
     <path class="st1" d="m44.27,55.94c0,8 -6.5,14.4 -14.4,14.4c-8,0 -14.4,-6.5 -14.4,-14.4c0,-8 6.5,-14.4 14.4,-14.4c8,0 14.4,6.4 14.4,14.4" id="svg_6"/>
     <path class="st1" d="m48.37,36.04l18.3,-31.6l-28.2,0c-7.8,0.2 -9.9,1.8 -12.9,7c0,0 -18.1,31.4 -18.1,31.4c-2.3,3.8 -3.6,8.3 -3.6,13.1c0,9.5 5,17.7 12.6,22.3c3.9,2.3 8.5,3.7 13.4,3.7c14.3,0 26,-11.6 26,-26c0,-4.9 -1.4,-9.5 -3.7,-13.4l-3.8,-6.5zm-9.7,-24.9l16.5,0l-10.6,18.3l-3.6,-6.3l-6.7,-11.6c0.9,-0.3 2.3,-0.4 4.4,-0.4m-8.8,64.1c-4.7,0 -9.1,-1.7 -12.5,-4.5c-4.2,-3.5 -6.9,-8.9 -6.9,-14.8c0,-3.6 1,-6.9 2.7,-9.8c0,0 16.6,-28.8 16.7,-28.9l6.5,11.2l0,0l0,0l10.2,17.7c0,0 0,0 0,0c1.7,2.9 2.7,6.2 2.7,9.8c-0.1,10.7 -8.7,19.3 -19.4,19.3" id="svg_7"/>
    </g>
   </g>
  </g>
 </g>
</svg>